<?xml version="1.0" encoding="UTF-8" standalone="no"?>
<svg
   xmlns:dc="http://purl.org/dc/elements/1.1/"
   xmlns:cc="http://creativecommons.org/ns#"
   xmlns:rdf="http://www.w3.org/1999/02/22-rdf-syntax-ns#"
   xmlns:svg="http://www.w3.org/2000/svg"
   xmlns="http://www.w3.org/2000/svg"
   id="svg7689"
   viewBox="0 0 612 792"
   height="792pt"
   version="1.1"
   width="612pt">
  <metadata
     id="metadata7693">
    <rdf:RDF>
      <cc:Work
         rdf:about="">
        <dc:format>image/svg+xml</dc:format>
        <dc:type
           rdf:resource="http://purl.org/dc/dcmitype/StillImage" />
        <dc:title></dc:title>
      </cc:Work>
    </rdf:RDF>
  </metadata>
  <defs
     id="defs7651">
    <clipPath
       id="Clip0">
      <path
         id="path7627"
         transform="translate(12, 12)"
         d="M0 0 L261 0 L261 153 L0 153 L0 0 Z" />
    </clipPath>
    <clipPath
       id="Clip1">
      <path
         id="path7630"
         transform="translate(12, 12)"
         d="M0 0 L261 0 L261 153 L0 153 L0 0 Z" />
    </clipPath>
    <clipPath
       id="Clip2">
      <path
         id="path7633"
         transform="translate(67.2784, 122.457)"
         d="M0 0 L150.443 0 L150.443 23.4175 L0 23.4175 L0 0 Z" />
    </clipPath>
    <clipPath
       id="Clip3">
      <path
         id="path7636"
         transform="translate(67.2784, 122.457)"
         d="M0 0 L150.443 0 L150.443 23.4174 L0 23.4174 L0 0 Z" />
    </clipPath>
    <clipPath
       id="Clip4">
      <path
         id="path7639"
         transform="translate(104.232, 141.617)"
         d="M0 0 L17.5517 0 L17.5517 4.25842 L0 4.25842 L0 0 Z" />
    </clipPath>
    <clipPath
       id="Clip5">
      <path
         id="path7642"
         transform="translate(77.7258, 31.125)"
         d="M0 0 L129.548 0 L129.548 88.599 L0 88.599 L0 0 Z" />
    </clipPath>
    <clipPath
       id="Clip6">
      <path
         id="path7645"
         transform="translate(77.7258, 31.125)"
         d="M0 0 L129.548 0 L129.548 88.599 L0 88.599 L0 0 Z" />
    </clipPath>
    <clipPath
       id="Clip7">
      <path
         id="path7648"
         transform="translate(97.2522, 55.17)"
         d="M0 0 L90.4958 0 L90.4958 40.5086 L0 40.5086 L0 0 Z" />
    </clipPath>
  </defs>
  <g
     id="Background">
    <g
       clip-path="url(#Clip0)"
       id="svg4926">
      <g
         clip-path="url(#Clip1)"
         id="layer1">
        <path
           transform="translate(12, 12)"
           d="M0 0 L261 0 L261 153 L0 153 L0 0 Z"
           id=" rect4563"
           style="fill:#050a41; fill-rule:evenodd;stroke:none;" />
        <g
           transform="translate(-2.2335737,6.4375)"
           id="g8259">
          <g
             id="g5743"
             clip-path="url(#Clip5)"
             transform="translate(2.2337736)">
            <g
               id="g3977"
               clip-path="url(#Clip6)">
              <path
                 style="fill:#008530;fill-rule:evenodd;stroke:none"
                 id=" path4245"
                 d="M 64.4184,0 H 12.115 C 5.51442,0 0,5.65703 0,12.4283 V 23.2281 H 12.7834 V 13.1997 h 51.635 z"
                 transform="translate(77.7258,31.1501)" />
              <path
                 style="fill:#008530;fill-rule:evenodd;stroke:none"
                 id=" path4248"
                 d="M 22.4978,65.662 V 12.3489 C 22.4978,5.62088 17.0186,0 10.4602,0 H 0 V 13.0302 H 9.71308 V 65.662 Z"
                 transform="translate(184.776,31.125)" />
              <path
                 style="fill:#008530;fill-rule:evenodd;stroke:none"
                 id=" path4251"
                 d="m 0,23.228 h 52.3031 c 6.6006,0 12.115,-5.657 12.115,-12.4283 V 0 H 51.6347 V 10.0283 H 0 Z"
                 transform="translate(142.856,96.496)" />
              <path
                 style="fill:#008530;fill-rule:evenodd;stroke:none"
                 id=" path4254"
                 d="m 0,0 v 53.3092 c 0,6.7276 5.47877,12.348 12.0367,12.348 H 22.4962 V 52.628 H 12.7838 V 0 Z"
                 transform="translate(77.7259,53.9752)" />
            </g>
            <g
               id="g3969"
               clip-path="url(#Clip7)">
              <path
                 style="fill:#009c2d;fill-rule:evenodd;stroke:none"
                 id=" circle3522-2"
                 d="m 12.928,6.63116 c 0,3.66224 -2.8941,6.63114 -6.46401,6.63114 C 2.89403,13.2623 1.00421e-7,10.2934 0,6.63116 1.00421e-7,2.96887 2.89403,0 6.46399,9.27161e-7 10.0339,1.03018e-6 12.928,2.96887 12.928,6.63116 Z"
                 transform="translate(97.2522,82.4163)" />
              <path
                 style="fill:#009c2d;fill-rule:evenodd;stroke:none"
                 id=" rect3524-4"
                 d="M 0,0 H 38.7839 V 13.2623 H 0 Z"
                 transform="translate(123.121,82.4117)" />
              <path
                 style="fill:#009c2d;fill-rule:evenodd;stroke:none"
                 id=" circle3526-0"
                 d="m 12.928,6.63116 c 0,3.66224 -2.8941,6.63114 -6.46401,6.63114 C 2.89403,13.2623 1.00421e-7,10.2934 0,6.63116 1.00421e-7,2.96887 2.89403,0 6.46399,9.27161e-7 10.0339,1.03018e-6 12.928,2.96887 12.928,6.63116 Z"
                 transform="translate(174.82,82.4163)" />
              <path
                 style="fill:#009c2d;fill-rule:evenodd;stroke:none"
                 id=" rect3338-4-06"
                 d="M 0,0 H 38.7839 V 13.2623 H 0 Z"
                 transform="translate(97.2522,55.17)" />
              <path
                 style="fill:#009c2d;fill-rule:evenodd;stroke:none"
                 id=" circle3340-2-9"
                 d="m 12.928,6.63116 c 0,3.66224 -2.8941,6.63114 -6.46401,6.63114 C 2.89403,13.2623 1.00421e-7,10.2934 0,6.63116 1.00421e-7,2.96887 2.89403,0 6.46399,9.27161e-7 10.0339,1.03018e-6 12.928,2.96887 12.928,6.63116 Z"
                 transform="translate(148.827,55.1761)" />
              <path
                 style="fill:#009c2d;fill-rule:evenodd;stroke:none"
                 id=" circle3342-8-9"
                 d="m 12.928,6.63116 c 0,3.66224 -2.8941,6.63114 -6.46401,6.63114 C 2.89403,13.2623 1.00421e-7,10.2934 0,6.63116 1.00421e-7,2.96887 2.89403,0 6.46399,9.27161e-7 10.0339,1.03018e-6 12.928,2.96887 12.928,6.63116 Z"
                 transform="translate(174.807,55.4319)" />
            </g>
          </g>
          <text
             xml:space="preserve"
             style="font-style:normal;font-variant:normal;font-weight:bold;font-stretch:normal;font-size:15.33943558px;line-height:20.54394341px;font-family:Orbitron;-inkscape-font-specification:'Orbitron, Bold';font-variant-ligatures:normal;font-variant-caps:normal;font-variant-numeric:normal;font-feature-settings:normal;text-align:start;letter-spacing:0px;word-spacing:0px;writing-mode:lr-tb;text-anchor:start;fill:#009c2d;fill-opacity:1;stroke:none;stroke-width:0.82175773px;stroke-linecap:butt;stroke-linejoin:miter;stroke-opacity:1"
             x="79.069885"
             y="133"
             id="text8240"><tspan
               id="tspan8238"
               x="79.069885"
               y="133"
               style="font-style:normal;font-variant:normal;font-weight:bold;font-stretch:normal;font-size:15.33943558px;font-family:Orbitron;-inkscape-font-specification:'Orbitron, Bold';font-variant-ligatures:normal;font-variant-caps:normal;font-variant-numeric:normal;font-feature-settings:normal;text-align:start;writing-mode:lr-tb;text-anchor:start;fill:#009c2d;fill-opacity:1;stroke-width:0.82175773px">DIGITALR00TS</tspan></text>
        </g>
      </g>
    </g>
  </g>
</svg>
