<?xml version="1.0" encoding="UTF-8" standalone="no"?>
<svg
   xmlns:dc="http://purl.org/dc/elements/1.1/"
   xmlns:cc="http://creativecommons.org/ns#"
   xmlns:rdf="http://www.w3.org/1999/02/22-rdf-syntax-ns#"
   xmlns:svg="http://www.w3.org/2000/svg"
   xmlns="http://www.w3.org/2000/svg"
   width="3.5in"
   height="2in"
   viewBox="0 0 88.899998 50.800001"
   id="svg4926"
   version="1.1">
  <title
     id="title4259">digitalr00ts business card</title>
  <defs
     id="defs3" />
  <metadata
     id="metadata4930">
    <rdf:RDF>
      <cc:Work
         rdf:about="">
        <dc:format>image/svg+xml</dc:format>
        <dc:type
           rdf:resource="http://purl.org/dc/dcmitype/StillImage" />
        <dc:title>digitalr00ts business card</dc:title>
        <dc:date>2015-11-03</dc:date>
        <dc:creator>
          <cc:Agent>
            <dc:title>Carlos Meza</dc:title>
          </cc:Agent>
        </dc:creator>
        <dc:description>digitalr00ts</dc:description>
        <dc:source>digitalr00ts.com</dc:source>
        <dc:publisher>
          <cc:Agent>
            <dc:title>digitalr00ts</dc:title>
          </cc:Agent>
        </dc:publisher>
        <dc:contributor>
          <cc:Agent>
            <dc:title>Carlos Meza</dc:title>
          </cc:Agent>
        </dc:contributor>
        <cc:license
           rdf:resource="http://creativecommons.org/licenses/by-nc-nd/3.0/" />
      </cc:Work>
      <cc:License
         rdf:about="http://creativecommons.org/licenses/by-nc-nd/3.0/">
        <cc:permits
           rdf:resource="http://creativecommons.org/ns#Reproduction" />
        <cc:permits
           rdf:resource="http://creativecommons.org/ns#Distribution" />
        <cc:requires
           rdf:resource="http://creativecommons.org/ns#Notice" />
        <cc:requires
           rdf:resource="http://creativecommons.org/ns#Attribution" />
        <cc:prohibits
           rdf:resource="http://creativecommons.org/ns#CommercialUse" />
      </cc:License>
    </rdf:RDF>
  </metadata>
  <g
     id="layer1"
     transform="matrix(1.0714286,0,0,1.125,-3.175,-6.7749963)">
    <path
       style="fill:#000024;fill-opacity:1;fill-rule:nonzero;stroke:none"
       d="m 0,3.1999967 88.900001,0 0,50.8000003 -88.900001,0 z"
       id="rect4563" />
    <g
       transform="matrix(0.34161946,0,0,0.34161946,18.8341,-157.3217)"
       id="g5473"
       style="fill:#00ff00">
      <g
         id="text4514"
         style="font-style:normal;font-variant:normal;font-weight:900;font-stretch:normal;font-size:22.75981712px;line-height:100%;font-family:Orbitron;-inkscape-font-specification:'Orbitron Heavy';text-align:start;letter-spacing:0px;word-spacing:0px;writing-mode:lr-tb;text-anchor:start;fill:#00ff00;fill-opacity:1;stroke:none">
        <path
           id="path4220"
           d="m 9.9232803,577.2629 0,4.32437 -6.6231068,0 C 1.4793881,581.58727 2.7656555e-8,583.08942 2.7656555e-8,584.88744 l 0,6.60035 c 0,1.79803 1.479388072343445,3.30017 3.300173472343445,3.30017 l 10.1053585,0 0,-17.52506 -3.4822517,0 z m -6.4182684,7.80662 6.4182684,0 0,6.23619 -6.4182684,0 0,-6.23619 z"
           style="fill:#00ff00" />
        <path
           id="path4222"
           d="m 15.862881,594.78796 3.482252,0 0,-13.20069 -3.482252,0 0,13.20069 z m 0,-17.52506 0,3.50502 3.482252,0 0,-3.50502 -3.482252,0 z"
           style="fill:#00ff00" />
        <path
           id="path4224"
           d="m 34.441292,596.69979 0,-11.81235 c 0,-1.79802 -1.479388,-3.30017 -3.300173,-3.30017 l -6.782426,0 c -1.820785,0 -3.322933,1.50215 -3.322933,3.30017 l 0,6.60035 c 0,1.79803 1.502148,3.30017 3.322933,3.30017 l 6.600347,0 0,1.70699 -7.829377,0 0,3.50501 8.011456,0 c 1.820785,0 3.300173,-1.47939 3.300173,-3.30017 z m -9.92328,-11.63027 6.441028,0 0,6.23619 -6.441028,0 0,-6.23619 z"
           style="fill:#00ff00" />
        <path
           id="path4226"
           d="m 36.84459,594.78796 3.482252,0 0,-13.20069 -3.482252,0 0,13.20069 z m 0,-17.52506 0,3.50502 3.482252,0 0,-3.50502 -3.482252,0 z"
           style="fill:#00ff00" />
        <path
           id="path4228"
           d="m 50.888462,585.06952 0,-3.48225 -4.89336,0 0,-3.91469 -3.482252,0 0,13.81521 c 0,1.79803 1.479388,3.30017 3.322933,3.30017 l 5.052679,0 0,-3.48225 -4.89336,0 0,-6.23619 4.89336,0 z"
           style="fill:#00ff00" />
        <path
           id="path4230"
           d="m 63.508068,581.58727 -10.082599,0 0,3.48225 9.90052,0 0,1.36559 -9.90052,0 0,5.05268 c 0,1.79803 1.479388,3.30017 3.300173,3.30017 l 10.082599,0 0,-9.90052 c 0,-1.79802 -1.479388,-3.30017 -3.300173,-3.30017 z m -0.182079,9.71844 -6.418268,0 0,-1.82078 6.418268,0 0,1.82078 z"
           style="fill:#00ff00" />
        <path
           id="path4232"
           d="m 68.583863,577.24014 0,14.24765 c 0,1.79803 1.502148,3.30017 3.300173,3.30017 l 2.867737,0 0,-3.48225 -2.662898,0 0,-14.06557 -3.505012,0 z"
           style="fill:#00ff00" />
        <path
           id="path4234"
           d="m 79.597127,581.58727 c -1.820786,0 -3.322934,1.50215 -3.322934,3.30017 l 0,9.90052 3.482252,0 0,-9.71844 7.123823,0 0,-3.48225 -7.283141,0 z"
           style="fill:#00ff00" />
        <path
           id="path4236"
           d="m 91.66872,578.4009 c -1.820785,0 -3.322933,1.57042 -3.322933,3.39121 l 0,9.46808 c 0,1.79803 1.502148,3.52777 3.322933,3.52777 l 9.44532,0 c 1.82079,0 3.32294,-1.72974 3.32294,-3.52777 l 0,-9.46808 c 0,-1.82079 -1.50215,-3.39121 -3.32294,-3.39121 l -9.44532,0 z m 2.025624,12.67721 7.260386,-6.09963 0,6.09963 -7.260386,0 z m 5.394076,-9.10392 -7.260381,6.09963 0,-6.09963 7.260381,0 z"
           style="fill:#00ff00" />
        <path
           id="path4238"
           d="m 110.65005,578.4009 c -1.82078,0 -3.32293,1.57042 -3.32293,3.39121 l 0,9.46808 c 0,1.79803 1.50215,3.52777 3.32293,3.52777 l 9.44532,0 c 1.82079,0 3.32294,-1.72974 3.32294,-3.52777 l 0,-9.46808 c 0,-1.82079 -1.50215,-3.39121 -3.32294,-3.39121 l -9.44532,0 z m 2.02562,12.67721 7.26039,-6.09963 0,6.09963 -7.26039,0 z m 5.39408,-9.10392 -7.26038,6.09963 0,-6.09963 7.26038,0 z"
           style="fill:#00ff00" />
        <path
           id="path4240"
           d="m 134.59302,585.06952 0,-3.48225 -4.89336,0 0,-3.91469 -3.48225,0 0,13.81521 c 0,1.79803 1.47939,3.30017 3.32293,3.30017 l 5.05268,0 0,-3.48225 -4.89336,0 0,-6.23619 4.89336,0 z"
           style="fill:#00ff00" />
        <path
           id="path4242"
           d="m 149.99999,584.88744 c 0,-1.79802 -1.47938,-3.30017 -3.32293,-3.30017 l -6.78242,0 c -1.79803,0 -3.30018,1.50215 -3.30018,3.30017 l 0,1.75251 c 0,1.79802 1.50215,3.30017 3.30018,3.30017 l 6.60034,0 0,1.36559 -6.41827,0 0,-0.47795 -3.48225,0 0,0.66003 c 0,1.79803 1.50215,3.30017 3.30018,3.30017 l 6.78242,0 c 1.84355,0 3.32293,-1.50214 3.32293,-3.30017 l 0,-1.75251 c 0,-1.79802 -1.47938,-3.30017 -3.32293,-3.30017 l -6.60035,0 0,-1.36559 6.41827,0 0,0.47796 3.50501,0 0,-0.66004 z"
           style="fill:#00ff00" />
      </g>
      <g
         id="text3428"
         style="font-style:normal;font-variant:normal;font-weight:900;font-stretch:normal;font-size:9.5145874px;line-height:125%;font-family:Orbitron;-inkscape-font-specification:'Orbitron Heavy';letter-spacing:0px;word-spacing:0px;fill:#00ff00;fill-opacity:1;stroke:none;stroke-width:1px;stroke-linecap:butt;stroke-linejoin:miter;stroke-opacity:1">
        <path
           id="path4211"
           style="font-size:7.1359396px;fill:#00ff00"
           d="m 37.936788,598.90826 -1.091799,0 0,1.0918 1.091799,0 0,-1.0918 z" />
        <path
           id="path4213"
           style="font-size:7.1359396px;fill:#00ff00"
           d="m 42.670926,596.95301 0,-1.09179 -3.154085,0 c -0.563739,0 -1.034711,0.47097 -1.034711,1.03471 l 0,2.06942 c 0,0.56374 0.470972,1.03471 1.034711,1.03471 l 3.161221,0 0,-1.0918 -3.104134,0 0,-1.95525 3.096998,0 z" />
        <path
           id="path4215"
           style="font-size:7.1359396px;fill:#00ff00"
           d="m 44.408862,595.86122 c -0.563739,0 -1.034711,0.47097 -1.034711,1.03471 l 0,2.06942 c 0,0.56374 0.470972,1.03471 1.034711,1.03471 l 2.12651,0 c 0.570875,0 1.034711,-0.47097 1.034711,-1.03471 l 0,-2.06942 c 0,-0.56374 -0.463836,-1.03471 -1.034711,-1.03471 l -2.12651,0 z m 0.05709,1.09179 2.012335,0 0,1.95525 -2.012335,0 0,-1.95525 z" />
        <path
           id="path4217"
           style="font-size:7.1359396px;fill:#00ff00"
           d="m 53.310277,595.86122 -4.980885,0 0,4.13884 1.091798,0 0,-3.04705 1.370101,0 0,3.04705 1.098934,0 0,-3.04705 1.370101,0 0,3.04705 1.084663,0 0,-3.10413 c 0,-0.56374 -0.463836,-1.03471 -1.034712,-1.03471 z" />
      </g>
    </g>
    <g
       id="g5743"
       transform="matrix(0.96513008,0,0,0.96513008,1.5554771,0.33300259)">
      <g
         id="g3977"
         style="fill:#00a000;fill-opacity:1"
         transform="matrix(0.30480005,0,0,0.30480005,21.59,-142.85004)">
        <g
           id="text3843"
           style="font-style:normal;font-variant:normal;font-weight:900;font-stretch:normal;font-size:96.74226379px;line-height:125%;font-family:Orbitron;-inkscape-font-specification:'Orbitron Heavy';text-align:start;letter-spacing:0px;word-spacing:0px;writing-mode:lr-tb;text-anchor:start;fill:#00a000;fill-opacity:1;stroke:none"
           transform="matrix(0,1,-1,0,0,0)">
          <path
             id="path4245"
             d="m 500.02843,-74.588285 0,60.560657 C 500.02843,-6.3849894 506.41342,0 514.05606,0 l 12.18952,0 0,-14.801566 -11.31884,0 0,-59.786719 -14.89831,0 z"
             style="fill:#00a000;fill-opacity:1" />
        </g>
        <g
           id="text3843-1"
           style="font-style:normal;font-variant:normal;font-weight:900;font-stretch:normal;font-size:96.12387085px;line-height:125%;font-family:Orbitron;-inkscape-font-specification:'Orbitron Heavy';text-align:start;letter-spacing:0px;word-spacing:0px;writing-mode:lr-tb;text-anchor:start;fill:#00a000;fill-opacity:1;stroke:none"
           transform="scale(-1,-1)">
          <path
             id="path4248"
             d="m -150.00029,-574.11157 0,60.17355 c 0,7.59378 6.34417,13.93796 13.93796,13.93796 l 12.11161,0 0,-14.70695 -11.2465,0 0,-59.40456 -14.80307,0 z"
             style="fill:#00a000;fill-opacity:1" />
        </g>
        <g
           id="text3843-3"
           style="font-style:normal;font-variant:normal;font-weight:900;font-stretch:normal;font-size:96.74167633px;line-height:125%;font-family:Orbitron;-inkscape-font-specification:'Orbitron Heavy';text-align:start;letter-spacing:0px;word-spacing:0px;writing-mode:lr-tb;text-anchor:start;fill:#00a000;fill-opacity:1;stroke:none"
           transform="matrix(0,-1,1,0,0,0)">
          <path
             id="path4251"
             d="m -600.00007,75.412 0,60.56029 c 0,7.64259 6.38495,14.02754 14.02754,14.02754 l 12.18945,0 0,-14.80147 -11.31877,0 0,-59.78636 -14.89822,0 z"
             style="fill:#00a000;fill-opacity:1" />
        </g>
        <g
           id="text3843-32"
           style="font-style:normal;font-variant:normal;font-weight:900;font-stretch:normal;font-size:96.11682892px;line-height:125%;font-family:Orbitron;-inkscape-font-specification:'Orbitron Heavy';text-align:start;letter-spacing:0px;word-spacing:0px;writing-mode:lr-tb;text-anchor:start;fill:#00a000;fill-opacity:1;stroke:none">
          <path
             id="path4254"
             d="m 8.0680847e-5,525.79065 0,60.16914 c 0,7.59323 6.343710719153,13.93694 13.936940319153,13.93694 l 12.11072,0 0,-14.70588 -11.245669,0 0,-59.4002 -14.801991319153,0 z"
             style="fill:#00a000;fill-opacity:1" />
        </g>
      </g>
      <g
         id="g3969"
         style="fill:#00ff00;fill-opacity:1"
         transform="matrix(0.30480005,0,0,0.30480005,21.59,-142.85004)">
        <path
           id="circle3522-2"
           d="m 42.955002,141.48 a 3.5550001,3.5550001 0 0 1 -3.555,3.555 3.5550001,3.5550001 0 0 1 -3.555001,-3.555 3.5550001,3.5550001 0 0 1 3.555001,-3.555 3.5550001,3.5550001 0 0 1 3.555,3.555 z"
           style="fill:#00ff00;fill-opacity:1"
           transform="matrix(2.105334,0,0,2.105334,-52.8567,267.51339)" />
        <path
           id="rect3524-4"
           d="m 52.561611,557.88635 44.906761,0 0,14.9689 -44.906761,0 z"
           style="fill:#00ff00;fill-opacity:1" />
        <path
           id="circle3526-0"
           d="m 42.955002,141.48 a 3.5550001,3.5550001 0 0 1 -3.555,3.555 3.5550001,3.5550001 0 0 1 -3.555001,-3.555 3.5550001,3.5550001 0 0 1 3.555001,-3.555 3.5550001,3.5550001 0 0 1 3.555,3.555 z"
           style="fill:#00ff00;fill-opacity:1"
           transform="matrix(2.105334,0,0,2.105334,36.956875,267.51339)" />
        <path
           id="rect3338-4-06"
           d="m 22.609024,527.13922 44.906761,0 0,14.9689 -44.906761,0 z"
           style="fill:#00ff00;fill-opacity:1" />
        <path
           id="circle3340-2-9"
           d="m 42.955002,141.48 a 3.5550001,3.5550001 0 0 1 -3.555,3.555 3.5550001,3.5550001 0 0 1 -3.555001,-3.555 3.5550001,3.5550001 0 0 1 3.555001,-3.555 3.5550001,3.5550001 0 0 1 3.555,3.555 z"
           style="fill:#00ff00;fill-opacity:1"
           transform="matrix(2.105334,0,0,2.105334,6.8608086,236.76785)" />
        <path
           id="circle3342-8-9"
           d="m 42.955002,141.48 a 3.5550001,3.5550001 0 0 1 -3.555,3.555 3.5550001,3.5550001 0 0 1 -3.555001,-3.555 3.5550001,3.5550001 0 0 1 3.555001,-3.555 3.5550001,3.5550001 0 0 1 3.555,3.555 z"
           style="fill:#00ff00;fill-opacity:1"
           transform="matrix(2.105334,0,0,2.105334,36.942137,237.05662)" />
      </g>
    </g>
  </g>
</svg>
